<?xml version="1.0" encoding="utf-8"?>
<!-- Generator: Adobe Illustrator 24.2.0, SVG Export Plug-In . SVG Version: 6.00 Build 0)  -->
<svg version="1.1" id="Layer_1" xmlns="http://www.w3.org/2000/svg" xmlns:xlink="http://www.w3.org/1999/xlink" x="0px" y="0px"
	 viewBox="0 0 801 148" style="enable-background:new 0 0 801 148;" xml:space="preserve">
<style type="text/css">
	.st0{fill:#F37021;}
	.st1{fill:#FFFFFF;}
	.st2{fill:#9E2535;}
	.st3{fill:#020000;}
	.st4{fill:#A7A9AC;}
</style>
<g>
	<g>
		<path class="st0" d="M146.47,21.45c11.59,72.85,0,119.12,0,119.12c-11.59-2.76-31.94-14.5-31.94-14.5
			c-11.27-33.15,0-90.12,0-90.12C133.32,24.55,146.47,21.45,146.47,21.45z"/>
		<path class="st0" d="M214.01,15.32c0,0,15.47,2.15,31.39,8.71c0,0,8.03,64.15-0.8,114.31c0,0-16.54,6.55-30.99,8.25
			C213.61,146.59,202.96,89.68,214.01,15.32z"/>
		<g>
			<path class="st1" d="M146.94,138.48c-3.53-7.8-10.34-14.2-17.37-18.72c-7.09-4.56-13.3-10.11-19.38-15.9
				c0.09,0.98,0.19,1.96,0.3,2.94c3.77,6.52,9.55,12.28,15.64,16.21c4.52,2.92,8.86,5.88,12.93,9.4c2.64,2.28,5.15,4.69,7.64,7.15
				C146.77,139.26,146.85,138.91,146.94,138.48z"/>
			<path class="st1" d="M146.59,112.83c-4.15-6.53-9.16-11.99-14.82-17.22c-8.42-7.36-15.28-16.41-21.56-25.68
				c-0.09,1.21-0.17,2.44-0.24,3.69c1.14,2.33,2.39,4.6,3.7,6.78c3.92,6.56,8.58,12.68,14.21,17.87
				c5.67,5.23,11.12,10.46,15.92,16.54c1.96,2.52,3.86,5.09,5.69,7.71c0.15-1.27,0.3-2.6,0.45-4
				C148.88,116.55,147.76,114.65,146.59,112.83z"/>
			<path class="st1" d="M126.56,34.48c4.08,5.49,8.86,10.42,14.53,14.28c3.24,2.2,6.39,4.4,9.4,6.79c-0.15-1.99-0.32-4-0.51-6.05
				c-1.6-1.27-3.26-2.48-4.99-3.65c-6.97-4.69-12.98-10.33-18.48-16.5c-0.85,0.42-1.71,0.86-2.6,1.33
				C124.76,31.98,125.65,33.25,126.56,34.48z"/>
			<path class="st1" d="M112.65,47.38c1.05,3.5,2.54,6.86,4.26,9.9c3.81,6.71,9.88,12.47,16.93,15.68c2.95,1.33,6.05,2.45,8.87,4.04
				c3.3,1.86,6.26,4.08,8.91,6.75c0-1.85-0.03-3.74-0.06-5.67c-0.96-0.88-1.95-1.73-2.99-2.54c-3.29-2.58-7.14-4.23-10.94-5.9
				c-6.94-3.05-12.5-7.43-17.18-13.39c-3.06-3.89-5.4-8.46-7.15-13.2C113.1,44.35,112.88,45.8,112.65,47.38z"/>
		</g>
		<g>
			<path class="st1" d="M245.34,133.86c-0.11-0.11-0.22-0.23-0.34-0.34c-2.45-2.41-5.37-4.12-8.46-5.55
				c-2.91-1.34-6.06-1.76-9.17-2.42c-5.89-1.1-11.2-3.38-15.83-7.26c-0.46-0.38-0.9-0.79-1.35-1.19c0.14,1.85,0.28,3.62,0.43,5.31
				c4.07,3.88,9.59,6.44,14.99,7.47c5.77,1.1,11.04,2.23,16.01,5.56c1.08,0.72,2.09,1.53,3.07,2.4
				C244.91,136.52,245.13,135.19,245.34,133.86z"/>
			<path class="st1" d="M230.64,94.78c-7.64-1.95-14.03-5.53-19.13-11.64c-0.88-1.06-1.7-2.17-2.5-3.32
				c-0.02,1.99-0.02,3.94-0.01,5.87c4.55,6.41,11.04,11.11,18.73,13.08c2.73,0.71,5.42,1.35,8,2.53c3.88,1.78,7.3,4.3,10.18,7.45
				c0.67,0.73,1.3,1.51,1.92,2.31c0.12-1.72,0.23-3.44,0.32-5.16C243.69,100.32,237.64,96.56,230.64,94.78z"/>
			<path class="st1" d="M243.8,75.18c-4.74-2.93-9.07-6.27-13.4-9.76c-5.79-4.68-13.05-8.58-20.52-10.59
				c-0.05,0.84-0.1,1.67-0.15,2.49c6.49,3.69,12.79,7.64,18.63,12.36c5.87,4.75,12.89,8.93,20.36,10.97c0-0.86-0.01-1.72-0.02-2.57
				C247.06,77.13,245.42,76.18,243.8,75.18z"/>
			<path class="st1" d="M235.71,40.43c-6.3-3.29-11.92-7.11-16.9-12.23c-2.02-2.08-3.91-4.31-5.68-6.62
				c-0.17,1.3-0.34,2.6-0.51,3.88c0.88,1.43,1.82,2.82,2.8,4.12c4.08,5.46,9.17,10.11,15.19,13.35c5.97,3.21,11.66,6.34,16.51,11.19
				c0.29,0.29,0.56,0.58,0.84,0.87c-0.1-1.94-0.21-3.81-0.33-5.62C244.19,45.76,240.19,42.77,235.71,40.43z"/>
		</g>
		<path class="st2" d="M160.98,17.77c0,0-6.96,79.63-0.23,126.4c0,0,17.53,5.16,38.33,3.79c0,0,8.32-56.69,0.09-133.89
			C199.17,14.07,180.96,12.31,160.98,17.77z"/>
		<path class="st3" d="M101.95,101.69c-6.89-3.83-17.58-13.13-17.58-13.13s-14.69,14.69-43,19.78
			c15.61-16.26,18.65-28.72,18.65-28.72s-8.33-16.21-28.54-33.7c33.84-1.12,52.99,20.52,52.99,20.52s7.35-9.02,19.33-17.02
			c0.5-3.1,1.04-5.95,1.64-9.47c-7.94,4.85-15.19,9.93-21.6,14.86C53.06,28.66,10.72,39.63,10.72,39.63s23.66,18.39,38.24,41.37
			c-12.5,21.34-38.24,41.37-38.24,41.37s45.45,5.18,73.12-15.19c6.21,4.77,13.2,9.7,20.85,14.4
			C103.47,116.78,102.52,106.91,101.95,101.69z"/>
		<path class="st3" d="M326.03,77.17c-1.69-1.83-30.63-32.77-72.78-50.72c0.32,2.8,0.5,4.66,0.75,7.5
			c31.44,18.56,46.65,33.97,56.71,45.04c-9.2,9.16-26.53,24.56-55.58,37.62c-0.49,4.47-1.81,14.83-2.52,19.19
			c42.49-17.91,71.71-49.15,73.41-50.99l3.52-3.82L326.03,77.17z"/>
	</g>
	<g>
		<path class="st3" d="M381.29,96.6c-2.84,0-5.41-0.14-7.69-0.42c-2.29-0.28-4.4-0.7-6.35-1.25c-1.95-0.56-3.84-1.28-5.68-2.17
			V79.89c2.56,2.06,5.46,3.62,8.69,4.68c3.23,1.06,6.3,1.59,9.19,1.59c2.56,0,4.53-0.49,5.89-1.46c1.36-0.97,2.05-2.47,2.05-4.47
			c0-1.5-0.63-2.72-1.88-3.64c-1.25-0.92-2.91-1.73-4.97-2.42c-2.06-0.7-4.37-1.49-6.94-2.38c-1.62-0.5-3.2-1.14-4.76-1.92
			c-1.56-0.78-2.95-1.77-4.18-2.97c-1.23-1.2-2.2-2.66-2.93-4.39c-0.72-1.73-1.09-3.84-1.09-6.35c0-2.28,0.42-4.48,1.25-6.6
			c0.84-2.12,2.13-4.01,3.89-5.68s4-2.99,6.73-3.97c2.73-0.97,5.93-1.46,9.61-1.46c2.28,0,4.3,0.14,6.06,0.42
			c1.76,0.28,3.44,0.68,5.06,1.21c1.62,0.53,3.26,1.21,4.93,2.05v13.04c-1.28-1.06-2.72-2.05-4.3-2.97
			c-1.59-0.92-3.25-1.68-4.97-2.3c-1.73-0.61-3.54-0.95-5.43-1c-1.67-0.05-3.2,0.11-4.6,0.5c-1.39,0.39-2.48,1.02-3.26,1.88
			c-0.78,0.86-1.17,1.96-1.17,3.3c0,1.56,0.47,2.79,1.42,3.68c0.95,0.89,2.26,1.63,3.93,2.21c1.67,0.58,3.54,1.21,5.6,1.88
			c2.28,0.67,4.39,1.41,6.31,2.21c1.92,0.81,3.61,1.83,5.06,3.05c1.45,1.23,2.56,2.73,3.34,4.51c0.78,1.78,1.17,3.93,1.17,6.44
			c0,3.34-0.78,6.39-2.34,9.15c-1.56,2.76-3.82,4.93-6.77,6.52C389.2,95.81,385.58,96.6,381.29,96.6z"/>
		<path class="st3" d="M426.67,96.69c-2.56,0-4.97-0.24-7.23-0.71c-2.26-0.47-4.23-1.25-5.93-2.34c-1.7-1.09-3.02-2.56-3.97-4.43
			c-0.95-1.87-1.42-4.19-1.42-6.98c0-2.62,0.54-4.9,1.63-6.85c1.09-1.95,2.74-3.45,4.97-4.51c2.23-1.06,5.04-1.59,8.44-1.59
			c1.89,0,3.73,0.2,5.52,0.58c1.78,0.39,3.38,0.92,4.81,1.59c1.42,0.67,2.55,1.39,3.39,2.17l0.5,6.02c-1.12-0.67-2.45-1.2-4.01-1.59
			c-1.56-0.39-3.23-0.58-5.01-0.58c-2.73,0-4.72,0.4-5.98,1.21c-1.25,0.81-1.88,2.08-1.88,3.8c0,1.06,0.31,2.01,0.92,2.84
			s1.43,1.48,2.47,1.92c1.03,0.45,2.1,0.67,3.22,0.67c2.84,0,4.83-0.19,5.98-0.58c1.14-0.39,1.71-1.17,1.71-2.34V69.44
			c0-2.56-0.82-4.42-2.47-5.56c-1.64-1.14-3.97-1.71-6.98-1.71c-2.45,0-4.92,0.43-7.4,1.3c-2.48,0.86-4.5,1.91-6.06,3.13V55.57
			c1.45-0.89,3.69-1.73,6.73-2.51c3.04-0.78,6.45-1.17,10.24-1.17c1.34,0,2.81,0.11,4.43,0.33c1.62,0.22,3.23,0.63,4.85,1.21
			s3.11,1.44,4.47,2.55c1.37,1.12,2.47,2.54,3.3,4.26c0.84,1.73,1.25,3.87,1.25,6.44l-0.08,19.98c0,2.4-0.81,4.33-2.42,5.81
			c-1.62,1.48-3.94,2.55-6.98,3.22C434.62,96.35,430.96,96.69,426.67,96.69z"/>
		<path class="st3" d="M470.71,96.69c-3.01,0-5.59-0.32-7.73-0.96c-2.15-0.64-4.17-1.35-6.06-2.13V82.65
			c1.17,0.78,2.48,1.58,3.93,2.38c1.45,0.81,3.05,1.46,4.81,1.96c1.76,0.5,3.61,0.75,5.56,0.75c2.01,0,3.41-0.35,4.22-1.04
			c0.81-0.7,1.21-1.55,1.21-2.55c0-0.95-0.42-1.71-1.25-2.3s-1.92-1.07-3.26-1.46c-1.34-0.39-2.76-0.75-4.26-1.09
			c-1.34-0.28-2.67-0.71-4.01-1.3c-1.34-0.58-2.54-1.38-3.59-2.38c-1.06-1-1.91-2.24-2.55-3.72c-0.64-1.48-0.96-3.27-0.96-5.39
			c0-2.73,0.53-5,1.59-6.81c1.06-1.81,2.45-3.27,4.18-4.39c1.73-1.11,3.59-1.91,5.6-2.38c2.01-0.47,3.96-0.68,5.85-0.63
			c3.45,0.11,6.2,0.49,8.23,1.13c2.03,0.64,3.89,1.46,5.56,2.47v9.78c-1.89-1.06-3.78-2.05-5.64-2.97c-1.87-0.92-4-1.38-6.39-1.38
			c-2.17,0-3.73,0.33-4.68,1c-0.95,0.67-1.42,1.56-1.42,2.67c0,1.06,0.32,1.89,0.96,2.51c0.64,0.61,1.49,1.1,2.55,1.46
			c1.06,0.36,2.23,0.71,3.51,1.04c1.39,0.33,2.83,0.74,4.3,1.21c1.48,0.47,2.87,1.14,4.18,2.01c1.31,0.86,2.37,2.06,3.18,3.59
			c0.81,1.53,1.21,3.55,1.21,6.06c-0.06,3.4-0.98,6.12-2.76,8.15s-4.08,3.48-6.89,4.35C477.05,96.25,474,96.69,470.71,96.69z"/>
		<path class="st3" d="M498.46,95.43V36.43H511V61.5l-5.27-2.84c2.23-1.95,4.86-3.55,7.9-4.81c3.04-1.25,6.14-1.88,9.32-1.88
			c3.06,0,5.77,0.5,8.11,1.5c2.34,1,4.17,2.63,5.47,4.89c1.31,2.26,1.96,5.36,1.96,9.32v27.75h-12.45V70.28
			c0-2.79-0.68-4.81-2.05-6.06c-1.37-1.25-3.36-1.88-5.98-1.88c-1.34,0-2.66,0.18-3.97,0.54c-1.31,0.36-2.33,0.82-3.05,1.38
			l-0.17,31.18H498.46z"/>
		<path class="st3" d="M549.53,47.38v-9.61h12.87v9.61H549.53z M549.78,95.43V53.73h12.45l0.08,41.71H549.78z"/>
		<path class="st3" d="M612.71,67.02v28.42h-12.45V69.52c0-1.06-0.15-2.03-0.46-2.93c-0.31-0.89-0.77-1.66-1.38-2.3
			c-0.61-0.64-1.45-1.14-2.51-1.5c-1.06-0.36-2.34-0.54-3.84-0.54c-1.28,0-2.47,0.15-3.55,0.46c-1.09,0.31-1.96,0.63-2.63,0.96
			v31.76h-12.45v-38.7c1.06-0.56,2.45-1.13,4.18-1.71c1.73-0.58,3.62-1.1,5.68-1.55c2.06-0.45,4.14-0.81,6.23-1.09
			c2.09-0.28,4.02-0.42,5.81-0.42c3.79,0,6.98,0.49,9.57,1.46c2.59,0.98,4.54,2.55,5.85,4.72
			C612.06,60.33,612.71,63.28,612.71,67.02z M599.93,59.58c1.73-1.5,3.82-2.83,6.27-3.97c2.45-1.14,5.04-2.03,7.77-2.67
			c2.73-0.64,5.27-0.96,7.61-0.96c3.79,0,6.98,0.49,9.57,1.46c2.59,0.98,4.54,2.55,5.85,4.72c1.31,2.17,1.96,5.13,1.96,8.86v28.42
			H626.5V69.52c0-1.06-0.15-2.03-0.46-2.93c-0.31-0.89-0.77-1.66-1.38-2.3c-0.61-0.64-1.45-1.14-2.51-1.5
			c-1.06-0.36-2.34-0.54-3.84-0.54c-1.28,0-2.46,0.18-3.55,0.54c-1.09,0.36-1.96,0.82-2.63,1.38L599.93,59.58z"/>
		<path class="st3" d="M649.99,47.38v-9.61h12.87v9.61H649.99z M650.24,95.43V53.73h12.45l0.08,41.71H650.24z"/>
		<path class="st3" d="M698.96,96.52c-8.92,0-15.73-2.35-20.44-7.06c-4.71-4.71-7.06-11.99-7.06-21.86c0-9.58,2.26-16.84,6.77-21.77
			s11.42-7.4,20.73-7.4c2.95,0,5.93,0.36,8.94,1.09c3.01,0.72,5.93,1.73,8.78,3.01v11.78c-2.9-1.89-5.68-3.26-8.36-4.1
			c-2.67-0.84-5.18-1.25-7.52-1.25c-3.29,0-6.06,0.58-8.32,1.76c-2.26,1.17-3.98,3.12-5.18,5.85c-1.2,2.73-1.8,6.41-1.8,11.03
			c0,4.63,0.6,8.27,1.8,10.95c1.2,2.67,2.98,4.58,5.35,5.73c2.37,1.14,5.28,1.71,8.73,1.71c2.06,0,4.4-0.39,7.02-1.17
			c2.62-0.78,5.38-2.12,8.27-4.01v11.79c-1.56,0.78-3.33,1.46-5.31,2.05c-1.98,0.58-4.04,1.04-6.18,1.38
			C703.04,96.35,700.97,96.52,698.96,96.52z"/>
		<path class="st3" d="M740.5,77.13v18.3h-13.54V39.69h25.07c6.52,0,11.64,1.48,15.38,4.43c3.73,2.95,5.6,7.52,5.6,13.71
			c0,6.19-1.87,10.95-5.6,14.29c-3.73,3.34-8.86,5.01-15.38,5.01H740.5z M740.5,66.68h9.86c1.45,0,2.69-0.19,3.72-0.58
			c1.03-0.39,1.85-0.95,2.46-1.67c0.61-0.72,1.07-1.57,1.38-2.55c0.31-0.97,0.46-2.02,0.46-3.13c0-1.34-0.15-2.51-0.46-3.51
			c-0.31-1-0.77-1.89-1.38-2.67c-0.61-0.78-1.43-1.36-2.46-1.75c-1.03-0.39-2.27-0.58-3.72-0.58h-9.86V66.68z"/>
	</g>
	<g>
		<g>
			<path class="st4" d="M363.38,128.04v-20.17h2.36l7.47,11.46l-1.48,0.33l7.89-11.79h2.36v20.17h-2.18v-18h0.97l-8.32,11.67
				l-7.68-11.43l0.79-1.12v18.87H363.38z"/>
			<path class="st4" d="M393.17,128.49c-2.36,0-4.11-0.7-5.25-2.1s-1.71-3.35-1.71-5.85c0-2.62,0.6-4.59,1.8-5.9
				c1.2-1.31,2.9-1.97,5.1-1.97c1.63,0,2.96,0.33,3.99,0.98s1.78,1.57,2.27,2.75s0.73,2.56,0.73,4.13c0,2.48-0.6,4.43-1.8,5.84
				C397.1,127.79,395.39,128.49,393.17,128.49z M393.14,126.5c1.23,0,2.19-0.27,2.87-0.8s1.17-1.25,1.47-2.15
				c0.29-0.9,0.44-1.9,0.44-3.01c0-1.19-0.15-2.22-0.45-3.1c-0.3-0.88-0.8-1.56-1.5-2.04c-0.7-0.48-1.64-0.73-2.83-0.73
				c-1.21,0-2.16,0.26-2.84,0.79c-0.69,0.53-1.17,1.23-1.47,2.1c-0.29,0.88-0.44,1.87-0.44,2.98c0,1.77,0.35,3.21,1.06,4.31
				C390.16,125.95,391.39,126.5,393.14,126.5z"/>
			<path class="st4" d="M410.44,128.49c-0.73,0-1.49-0.11-2.3-0.32c-0.81-0.21-1.57-0.6-2.28-1.18c-0.72-0.58-1.3-1.4-1.75-2.48
				c-0.45-1.08-0.68-2.48-0.68-4.22c0-2.34,0.57-4.19,1.71-5.55c1.14-1.36,2.87-2.04,5.19-2.04c0.44,0,0.97,0.06,1.57,0.18
				s1.2,0.27,1.78,0.45c0.58,0.18,1.07,0.37,1.45,0.58l-0.76,0.76v-8.11h2.18v18.87c0,0.56-0.2,1.04-0.59,1.44
				c-0.39,0.39-0.9,0.71-1.53,0.94s-1.29,0.4-2,0.51C411.73,128.43,411.07,128.49,410.44,128.49z M410.47,126.5
				c1.05,0,1.96-0.12,2.74-0.36s1.16-0.54,1.16-0.91v-9.47c-0.63-0.36-1.3-0.63-2.01-0.8c-0.72-0.17-1.4-0.26-2.04-0.26
				c-1.09,0-1.97,0.24-2.65,0.71c-0.68,0.47-1.17,1.13-1.48,1.97s-0.47,1.81-0.47,2.92c0,1.09,0.12,2.1,0.36,3.04
				c0.24,0.94,0.71,1.7,1.39,2.28C408.16,126.2,409.16,126.5,410.47,126.5z"/>
			<path class="st4" d="M427.62,128.49c-1.43,0-2.67-0.3-3.72-0.89s-1.86-1.49-2.42-2.68c-0.57-1.19-0.85-2.67-0.85-4.45
				c0-2.6,0.59-4.55,1.77-5.85c1.18-1.3,2.8-1.95,4.85-1.95c1.61,0,2.91,0.36,3.89,1.09s1.68,1.7,2.1,2.93
				c0.42,1.23,0.63,2.62,0.61,4.17h-12.13l0.15-2h10.55l-0.85,0.3c-0.06-1.51-0.44-2.64-1.13-3.39s-1.76-1.12-3.19-1.12
				c-0.99,0-1.81,0.18-2.46,0.54c-0.65,0.36-1.14,0.99-1.47,1.89c-0.32,0.9-0.48,2.15-0.48,3.77c0,1.83,0.43,3.23,1.29,4.19
				c0.86,0.96,2.06,1.44,3.62,1.44c0.75,0,1.43-0.06,2.06-0.17c0.63-0.11,1.2-0.27,1.72-0.47c0.52-0.2,0.99-0.42,1.39-0.67v2.24
				c-0.73,0.34-1.53,0.6-2.4,0.79S428.67,128.49,427.62,128.49z"/>
			<path class="st4" d="M437.93,128.04v-13.88c0.24-0.1,0.71-0.27,1.41-0.51c0.7-0.24,1.53-0.46,2.51-0.67s1.99-0.3,3.04-0.3
				c0.16,0,0.32,0.02,0.48,0.06c0.16,0.04,0.32,0.08,0.48,0.12v1.94c-0.52-0.06-1.03-0.09-1.53-0.09s-0.97,0.03-1.44,0.08
				c-0.46,0.05-0.93,0.12-1.39,0.2c-0.46,0.08-0.93,0.16-1.39,0.24v12.82H437.93z"/>
			<path class="st4" d="M449.33,114.16c0.48-0.24,0.98-0.46,1.5-0.65c0.51-0.19,1.04-0.35,1.57-0.47s1.08-0.21,1.63-0.27
				s1.11-0.09,1.68-0.09c1.47,0,2.64,0.22,3.51,0.65c0.87,0.43,1.5,1.06,1.89,1.89c0.39,0.83,0.59,1.82,0.59,2.99v9.83h-2.18v-9.83
				c0-0.36-0.05-0.75-0.14-1.15s-0.27-0.79-0.53-1.17c-0.26-0.37-0.67-0.67-1.21-0.91c-0.54-0.23-1.27-0.35-2.18-0.35
				c-0.63,0-1.27,0.05-1.94,0.15c-0.67,0.1-1.34,0.25-2.03,0.45v12.79h-2.18V114.16z"/>
			<path class="st4" d="M475.31,128.04v-13.88c0.24-0.1,0.71-0.27,1.41-0.51c0.7-0.24,1.53-0.46,2.51-0.67s1.99-0.3,3.04-0.3
				c0.16,0,0.32,0.02,0.48,0.06c0.16,0.04,0.32,0.08,0.48,0.12v1.94c-0.52-0.06-1.03-0.09-1.53-0.09s-0.97,0.03-1.44,0.08
				c-0.46,0.05-0.93,0.12-1.39,0.2c-0.46,0.08-0.93,0.16-1.39,0.24v12.82H475.31z"/>
			<path class="st4" d="M484.9,128.04l8.04-20.17h2.18l8.01,20.17h-2.33l-6.99-18.15l0.45-0.06l-7.02,18.21H484.9z M488.44,121.75
				l0.94-2.09h9.89l0.15,2.09H488.44z"/>
			<path class="st4" d="M510.91,128.28c-1.07,0-1.97-0.33-2.69-0.98c-0.73-0.65-1.09-1.63-1.09-2.92v-9.44h-2.63v-2h2.63v-4.26h2.18
				v4.26h3.9v2h-3.9v8.74c0,0.85,0.13,1.48,0.39,1.91c0.26,0.42,0.8,0.64,1.6,0.64c0.36,0,0.71-0.04,1.06-0.11
				c0.34-0.07,0.62-0.16,0.85-0.26v2.06c-0.28,0.1-0.64,0.19-1.07,0.26S511.29,128.28,510.91,128.28z"/>
			<path class="st4" d="M517.14,128.04v-21.78h2.18v8.38l-0.24-0.57c0.77-0.42,1.57-0.76,2.42-1.01c0.85-0.25,1.64-0.38,2.39-0.38
				c1.25,0,2.3,0.23,3.16,0.7c0.86,0.46,1.51,1.17,1.97,2.1c0.45,0.94,0.68,2.14,0.68,3.61v8.95h-2.18v-8.95
				c0-1.41-0.32-2.5-0.97-3.27c-0.65-0.77-1.61-1.15-2.9-1.15c-0.71,0-1.42,0.1-2.13,0.3c-0.72,0.2-1.45,0.5-2.19,0.91v12.16H517.14
				z"/>
			<path class="st4" d="M540.76,128.49c-1.43,0-2.67-0.3-3.72-0.89c-1.05-0.59-1.86-1.49-2.42-2.68c-0.57-1.19-0.85-2.67-0.85-4.45
				c0-2.6,0.59-4.55,1.77-5.85c1.18-1.3,2.8-1.95,4.85-1.95c1.61,0,2.91,0.36,3.89,1.09c0.98,0.73,1.68,1.7,2.1,2.93
				c0.42,1.23,0.63,2.62,0.6,4.17h-12.13l0.15-2h10.56l-0.85,0.3c-0.06-1.51-0.44-2.64-1.13-3.39c-0.7-0.75-1.76-1.12-3.19-1.12
				c-0.99,0-1.81,0.18-2.46,0.54c-0.66,0.36-1.14,0.99-1.47,1.89c-0.32,0.9-0.48,2.15-0.48,3.77c0,1.83,0.43,3.23,1.29,4.19
				c0.86,0.96,2.06,1.44,3.61,1.44c0.75,0,1.43-0.06,2.06-0.17c0.63-0.11,1.2-0.27,1.72-0.47c0.52-0.2,0.99-0.42,1.39-0.67v2.24
				c-0.73,0.34-1.53,0.6-2.4,0.79S541.81,128.49,540.76,128.49z"/>
			<path class="st4" d="M551.08,114.16c0.48-0.24,0.98-0.46,1.5-0.65c0.51-0.19,1.04-0.35,1.57-0.47s1.08-0.21,1.63-0.27
				s1.11-0.09,1.68-0.09c1.47,0,2.64,0.22,3.51,0.65c0.87,0.43,1.5,1.06,1.89,1.89c0.39,0.83,0.59,1.82,0.59,2.99v9.83h-2.18v-9.83
				c0-0.36-0.05-0.75-0.14-1.15s-0.27-0.79-0.53-1.17c-0.26-0.37-0.67-0.67-1.21-0.91c-0.54-0.23-1.27-0.35-2.18-0.35
				c-0.63,0-1.27,0.05-1.94,0.15c-0.67,0.1-1.34,0.25-2.03,0.45v12.79h-2.18V114.16z"/>
			<path class="st4" d="M573.49,128.49c-0.67,0-1.34-0.07-2.01-0.21c-0.68-0.14-1.3-0.38-1.88-0.73c-0.58-0.34-1.04-0.81-1.39-1.41
				c-0.35-0.59-0.53-1.35-0.53-2.25c0-1.25,0.24-2.25,0.71-3.01c0.47-0.76,1.13-1.3,1.97-1.63s1.8-0.5,2.89-0.5
				c0.83,0,1.54,0.05,2.15,0.15c0.6,0.1,1.14,0.25,1.62,0.44c0.47,0.19,0.9,0.41,1.29,0.65l0.42,2c-0.46-0.34-1.13-0.64-2.01-0.89
				c-0.88-0.25-1.84-0.38-2.89-0.38c-1.27,0-2.25,0.24-2.93,0.73c-0.69,0.48-1.03,1.19-1.03,2.12c0,0.75,0.21,1.34,0.62,1.79
				s0.94,0.76,1.57,0.94c0.64,0.18,1.29,0.27,1.95,0.27c1.31,0,2.3-0.09,2.98-0.29c0.67-0.19,1.01-0.63,1.01-1.32v-6.93
				c0-1.17-0.34-2.03-1.03-2.57c-0.69-0.54-1.66-0.82-2.93-0.82c-0.81,0-1.66,0.12-2.56,0.35c-0.9,0.23-1.67,0.6-2.31,1.1v-2.18
				c0.62-0.4,1.46-0.71,2.51-0.92c1.05-0.21,2.07-0.32,3.05-0.32c0.67,0,1.28,0.07,1.84,0.2c0.56,0.13,1.07,0.32,1.51,0.58
				s0.82,0.57,1.13,0.97s0.55,0.85,0.73,1.36c0.17,0.51,0.26,1.09,0.26,1.74v7.32c0,1.07-0.32,1.87-0.95,2.39
				c-0.63,0.52-1.46,0.87-2.48,1.03C575.75,128.41,574.66,128.49,573.49,128.49z"/>
			<path class="st4" d="M602.4,128.28c-3.11,0-5.44-0.87-7-2.6c-1.56-1.73-2.34-4.31-2.34-7.74s0.78-6.01,2.34-7.74
				c1.56-1.73,3.9-2.6,7-2.6c1.07,0,2.12,0.13,3.15,0.39s2.03,0.63,2.99,1.09v2.09c-0.93-0.5-1.89-0.88-2.87-1.13
				c-0.99-0.25-2-0.38-3.02-0.38c-1.69,0-3.08,0.29-4.16,0.88c-1.08,0.58-1.88,1.49-2.39,2.71c-0.51,1.22-0.77,2.79-0.77,4.7
				c0,1.92,0.26,3.48,0.77,4.7c0.51,1.22,1.31,2.12,2.39,2.71c1.08,0.58,2.46,0.88,4.16,0.88c1.03,0,2.04-0.12,3.02-0.36
				c0.99-0.24,1.95-0.61,2.87-1.12v2.09c-0.65,0.3-1.31,0.56-1.98,0.79c-0.68,0.22-1.36,0.39-2.06,0.5
				C603.8,128.22,603.1,128.28,602.4,128.28z"/>
			<path class="st4" d="M618.82,128.49c-2.36,0-4.11-0.7-5.25-2.1c-1.14-1.4-1.71-3.35-1.71-5.85c0-2.62,0.6-4.59,1.8-5.9
				c1.2-1.31,2.9-1.97,5.1-1.97c1.63,0,2.96,0.33,3.99,0.98s1.78,1.57,2.27,2.75c0.48,1.18,0.73,2.56,0.73,4.13
				c0,2.48-0.6,4.43-1.8,5.84C622.75,127.79,621.04,128.49,618.82,128.49z M618.79,126.5c1.23,0,2.19-0.27,2.87-0.8
				c0.68-0.53,1.17-1.25,1.47-2.15c0.29-0.9,0.44-1.9,0.44-3.01c0-1.19-0.15-2.22-0.45-3.1c-0.3-0.88-0.8-1.56-1.5-2.04
				c-0.7-0.48-1.64-0.73-2.83-0.73c-1.21,0-2.16,0.26-2.84,0.79c-0.69,0.53-1.17,1.23-1.47,2.1s-0.44,1.87-0.44,2.98
				c0,1.77,0.35,3.21,1.06,4.31S617.04,126.5,618.79,126.5z"/>
			<path class="st4" d="M629.83,114.16c0.48-0.24,0.98-0.46,1.5-0.65c0.51-0.19,1.04-0.35,1.57-0.47s1.08-0.21,1.63-0.27
				s1.11-0.09,1.68-0.09c1.47,0,2.64,0.22,3.51,0.65c0.87,0.43,1.5,1.06,1.89,1.89c0.39,0.83,0.59,1.82,0.59,2.99v9.83h-2.18v-9.83
				c0-0.36-0.05-0.75-0.14-1.15s-0.27-0.79-0.53-1.17c-0.26-0.37-0.67-0.67-1.21-0.91c-0.54-0.23-1.27-0.35-2.18-0.35
				c-0.63,0-1.27,0.05-1.94,0.15c-0.67,0.1-1.34,0.25-2.03,0.45v12.79h-2.18V114.16z"/>
			<path class="st4" d="M651.79,128.28c-1.07,0-1.97-0.33-2.69-0.98c-0.73-0.65-1.09-1.63-1.09-2.92v-9.44h-2.63v-2h2.63v-4.26h2.18
				v4.26h3.9v2h-3.9v8.74c0,0.85,0.13,1.48,0.39,1.91c0.26,0.42,0.8,0.64,1.6,0.64c0.36,0,0.71-0.04,1.06-0.11
				c0.34-0.07,0.62-0.16,0.85-0.26v2.06c-0.28,0.1-0.64,0.19-1.07,0.26S652.17,128.28,651.79,128.28z"/>
			<path class="st4" d="M658.02,128.04v-13.88c0.24-0.1,0.71-0.27,1.41-0.51c0.7-0.24,1.53-0.46,2.51-0.67s1.99-0.3,3.04-0.3
				c0.16,0,0.32,0.02,0.48,0.06c0.16,0.04,0.32,0.08,0.48,0.12v1.94c-0.52-0.06-1.03-0.09-1.53-0.09s-0.97,0.03-1.44,0.08
				c-0.46,0.05-0.93,0.12-1.39,0.2c-0.46,0.08-0.93,0.16-1.39,0.24v12.82H658.02z"/>
			<path class="st4" d="M674.56,128.49c-2.36,0-4.11-0.7-5.25-2.1c-1.14-1.4-1.71-3.35-1.71-5.85c0-2.62,0.6-4.59,1.8-5.9
				c1.2-1.31,2.9-1.97,5.1-1.97c1.63,0,2.96,0.33,3.99,0.98s1.78,1.57,2.27,2.75c0.48,1.18,0.73,2.56,0.73,4.13
				c0,2.48-0.6,4.43-1.8,5.84C678.49,127.79,676.78,128.49,674.56,128.49z M674.53,126.5c1.23,0,2.19-0.27,2.87-0.8
				c0.68-0.53,1.17-1.25,1.47-2.15c0.29-0.9,0.44-1.9,0.44-3.01c0-1.19-0.15-2.22-0.45-3.1c-0.3-0.88-0.8-1.56-1.5-2.04
				c-0.7-0.48-1.64-0.73-2.83-0.73c-1.21,0-2.16,0.26-2.84,0.79c-0.69,0.53-1.17,1.23-1.47,2.1s-0.44,1.87-0.44,2.98
				c0,1.77,0.35,3.21,1.06,4.31S672.78,126.5,674.53,126.5z"/>
			<path class="st4" d="M687.75,128.04h-2.18V107.2h2.18V128.04z"/>
			<path class="st4" d="M703.68,120.33v7.71h-2.18v-20.17h7.17c2.26,0,3.99,0.53,5.19,1.6c1.2,1.07,1.8,2.61,1.8,4.63
				s-0.6,3.56-1.8,4.63c-1.2,1.07-2.93,1.6-5.19,1.6H703.68z M703.68,118.24h4.72c1.13,0,2.03-0.12,2.71-0.36
				c0.67-0.24,1.18-0.57,1.53-0.98c0.34-0.41,0.57-0.86,0.68-1.35c0.11-0.48,0.17-0.97,0.17-1.45c0-0.48-0.06-0.97-0.17-1.45
				c-0.11-0.48-0.34-0.93-0.68-1.35c-0.34-0.41-0.85-0.74-1.53-0.98c-0.68-0.24-1.58-0.36-2.71-0.36h-4.72V118.24z"/>
			<path class="st4" d="M725.1,128.49c-0.67,0-1.34-0.07-2.01-0.21c-0.68-0.14-1.3-0.38-1.88-0.73c-0.58-0.34-1.04-0.81-1.39-1.41
				c-0.35-0.59-0.53-1.35-0.53-2.25c0-1.25,0.24-2.25,0.71-3.01c0.47-0.76,1.13-1.3,1.97-1.63s1.8-0.5,2.89-0.5
				c0.83,0,1.54,0.05,2.15,0.15c0.6,0.1,1.14,0.25,1.62,0.44c0.47,0.19,0.9,0.41,1.29,0.65l0.42,2c-0.46-0.34-1.13-0.64-2.01-0.89
				c-0.88-0.25-1.84-0.38-2.89-0.38c-1.27,0-2.25,0.24-2.93,0.73c-0.69,0.48-1.03,1.19-1.03,2.12c0,0.75,0.21,1.34,0.62,1.79
				s0.94,0.76,1.57,0.94c0.64,0.18,1.29,0.27,1.95,0.27c1.31,0,2.3-0.09,2.98-0.29c0.67-0.19,1.01-0.63,1.01-1.32v-6.93
				c0-1.17-0.34-2.03-1.03-2.57c-0.69-0.54-1.66-0.82-2.93-0.82c-0.81,0-1.66,0.12-2.56,0.35c-0.9,0.23-1.67,0.6-2.31,1.1v-2.18
				c0.62-0.4,1.46-0.71,2.51-0.92c1.05-0.21,2.07-0.32,3.05-0.32c0.67,0,1.28,0.07,1.84,0.2c0.56,0.13,1.07,0.32,1.51,0.58
				s0.82,0.57,1.13,0.97s0.55,0.85,0.73,1.36c0.17,0.51,0.26,1.09,0.26,1.74v7.32c0,1.07-0.32,1.87-0.95,2.39
				c-0.63,0.52-1.46,0.87-2.48,1.03C727.36,128.41,726.27,128.49,725.1,128.49z"/>
			<path class="st4" d="M736.65,114.16c0.48-0.24,0.98-0.46,1.5-0.65c0.51-0.19,1.04-0.35,1.57-0.47s1.08-0.21,1.63-0.27
				s1.11-0.09,1.68-0.09c1.47,0,2.64,0.22,3.51,0.65c0.87,0.43,1.5,1.06,1.89,1.89c0.39,0.83,0.59,1.82,0.59,2.99v9.83h-2.18v-9.83
				c0-0.36-0.05-0.75-0.14-1.15s-0.27-0.79-0.53-1.17c-0.26-0.37-0.67-0.67-1.21-0.91c-0.54-0.23-1.27-0.35-2.18-0.35
				c-0.63,0-1.27,0.05-1.94,0.15c-0.67,0.1-1.34,0.25-2.03,0.45v12.79h-2.18V114.16z"/>
			<path class="st4" d="M760.09,128.49c-1.43,0-2.67-0.3-3.72-0.89c-1.05-0.59-1.86-1.49-2.42-2.68c-0.57-1.19-0.85-2.67-0.85-4.45
				c0-2.6,0.59-4.55,1.77-5.85c1.18-1.3,2.8-1.95,4.85-1.95c1.61,0,2.91,0.36,3.89,1.09c0.98,0.73,1.68,1.7,2.1,2.93
				c0.42,1.23,0.63,2.62,0.6,4.17h-12.13l0.15-2h10.56l-0.85,0.3c-0.06-1.51-0.44-2.64-1.13-3.39c-0.7-0.75-1.76-1.12-3.19-1.12
				c-0.99,0-1.81,0.18-2.46,0.54c-0.66,0.36-1.14,0.99-1.47,1.89c-0.32,0.9-0.48,2.15-0.48,3.77c0,1.83,0.43,3.23,1.29,4.19
				c0.86,0.96,2.06,1.44,3.61,1.44c0.75,0,1.43-0.06,2.06-0.17c0.63-0.11,1.2-0.27,1.72-0.47c0.52-0.2,0.99-0.42,1.39-0.67v2.24
				c-0.73,0.34-1.53,0.6-2.4,0.79S761.14,128.49,760.09,128.49z"/>
			<path class="st4" d="M772.58,128.04h-2.18V107.2h2.18V128.04z"/>
		</g>
	</g>
</g>
</svg>
