<?xml version="1.0" encoding="utf-8"?>
<!-- Generator: Adobe Illustrator 24.2.0, SVG Export Plug-In . SVG Version: 6.00 Build 0)  -->
<svg version="1.1" id="Layer_1" xmlns="http://www.w3.org/2000/svg" xmlns:xlink="http://www.w3.org/1999/xlink" x="0px" y="0px"
	 viewBox="0 0 113 94" style="enable-background:new 0 0 113 94;" xml:space="preserve">
<style type="text/css">
	.st0{fill:#FFFFFF;}
</style>
<path class="st0" d="M34.6,46.3C39,48.1,42.4,51,44.8,55c2.6,3.8,3.9,8.4,3.9,13.8c0,7.2-2.3,13.1-6.9,17.7s-10.3,6.9-17.1,6.9
	c-7.2,0-13.1-2.3-17.7-6.9S0.1,76,0.1,68.8c0-3.6,0.4-7.1,1.2-10.5c1-3.4,2.8-8.5,5.4-15.3L22.6,0.4h24L34.6,46.3z M98.2,46.3
	c4.4,1.8,7.8,4.7,10.2,8.7c2.6,3.8,3.9,8.4,3.9,13.8c0,7.2-2.3,13.1-6.9,17.7s-10.3,6.9-17.1,6.9c-7.2,0-13.1-2.3-17.7-6.9
	C66,81.9,63.7,76,63.7,68.8c0-3.6,0.4-7.1,1.2-10.5c1-3.4,2.8-8.5,5.4-15.3L86.2,0.4h24L98.2,46.3z"/>
</svg>
