<svg width="27" height="30" viewBox="0 0 27 30" fill="none" xmlns="http://www.w3.org/2000/svg">
<path d="M25.5905 13.6907L21.8438 10.3603V5.2367L17.5446 0.9375H5.90625V8.4375H1.6875C1.31467 8.43793 0.95724 8.58623 0.693611 8.84986C0.429982 9.11349 0.281684 9.47092 0.28125 9.84375V27.6562C0.281684 28.0291 0.429982 28.3865 0.693611 28.6501C0.95724 28.9138 1.31467 29.0621 1.6875 29.0625H26.0625V14.7418C26.0624 14.5432 26.0203 14.3469 25.939 14.1657C25.8576 13.9846 25.7388 13.8227 25.5905 13.6907ZM5.90625 27.1875H2.15625V10.3125H5.90625V27.1875ZM16.2188 2.8125H16.7679L19.9688 6.0133V6.5625H16.2188V2.8125ZM7.78125 2.8125H14.3438V8.4375H19.9688V12.6562H7.78125V2.8125ZM24.1875 27.1875H7.78125V14.5312H21.8438V12.8689L24.1875 14.9523V27.1875Z" fill="white"/>
</svg>
