<?xml version="1.0" encoding="iso-8859-1"?>
<!-- Generator: Adobe Illustrator 19.0.0, SVG Export Plug-In . SVG Version: 6.00 Build 0)  -->
<svg version="1.1" id="Capa_1" xmlns="http://www.w3.org/2000/svg" xmlns:xlink="http://www.w3.org/1999/xlink" x="0px" y="0px"
	 viewBox="0 0 512 512" style="enable-background:new 0 0 512 512;" xml:space="preserve">
<linearGradient id="SVGID_1_" gradientUnits="userSpaceOnUse" x1="457.2786" y1="297.6105" x2="538.6586" y2="297.6105" gradientTransform="matrix(1.0039 0 0 -1.0039 0.1922 516.5608)">
	<stop  offset="0" style="stop-color:#E2EDF2"/>
	<stop  offset="0.16" style="stop-color:#DDE8EE"/>
	<stop  offset="0.349" style="stop-color:#CFDAE1"/>
	<stop  offset="0.554" style="stop-color:#B7C3CB"/>
	<stop  offset="0.77" style="stop-color:#95A2AD"/>
	<stop  offset="0.993" style="stop-color:#6A7887"/>
	<stop  offset="1" style="stop-color:#697786"/>
</linearGradient>
<path style="fill:url(#SVGID_1_);" d="M408.906,358.742v-34.075c38.058,0,69.019-30.962,69.019-69.019v-75.73
	c0-38.058-30.962-69.02-69.019-69.02V76.824C465.752,76.824,512,123.073,512,179.919v75.73
	C512,312.495,465.752,358.742,408.906,358.742z"/>
<linearGradient id="SVGID_2_" gradientUnits="userSpaceOnUse" x1="490.8419" y1="327.8763" x2="341.8519" y2="476.8763" gradientTransform="matrix(1.0039 0 0 -1.0039 0.1922 516.5608)">
	<stop  offset="0" style="stop-color:#E2EDF2;stop-opacity:0"/>
	<stop  offset="0.352" style="stop-color:#BBC7CF;stop-opacity:0.352"/>
	<stop  offset="1" style="stop-color:#697786"/>
</linearGradient>
<path style="fill:url(#SVGID_2_);" d="M512,214.314v-34.395c0-5.73-0.492-11.346-1.395-16.825L425.73,78.22
	c-5.478-0.904-11.094-1.395-16.825-1.395v34.075c38.058,0,69.019,30.962,69.019,69.02v34.395H512z"/>
<linearGradient id="SVGID_3_" gradientUnits="userSpaceOnUse" x1="457.2588" y1="33.7334" x2="-0.2112" y2="62.9935" gradientTransform="matrix(1.0039 0 0 -1.0039 0.1922 516.5608)">
	<stop  offset="0" style="stop-color:#E2EDF2"/>
	<stop  offset="0.16" style="stop-color:#DDE8EE"/>
	<stop  offset="0.349" style="stop-color:#CFDAE1"/>
	<stop  offset="0.554" style="stop-color:#B7C3CB"/>
	<stop  offset="0.77" style="stop-color:#95A2AD"/>
	<stop  offset="0.993" style="stop-color:#6A7887"/>
	<stop  offset="1" style="stop-color:#697786"/>
</linearGradient>
<path style="fill:url(#SVGID_3_);" d="M380.978,484.886H129.016c-11.419,0-20.675-9.256-20.675-20.675v-8.555h293.312v8.555
	C401.653,475.63,392.397,484.886,380.978,484.886z"/>
<linearGradient id="SVGID_4_" gradientUnits="userSpaceOnUse" x1="451.5978" y1="139.2822" x2="395.3178" y2="195.5722" gradientTransform="matrix(1.0039 0 0 -1.0039 0.1922 516.5608)">
	<stop  offset="0" style="stop-color:#E2EDF2;stop-opacity:0"/>
	<stop  offset="0.352" style="stop-color:#BBC7CF;stop-opacity:0.352"/>
	<stop  offset="1" style="stop-color:#697786"/>
</linearGradient>
<path style="fill:url(#SVGID_4_);" d="M426.019,322.517c-5.474,1.401-11.208,2.15-17.113,2.15v34.075
	c15.587,0,30.366-3.496,43.623-9.714L426.019,322.517z"/>
<linearGradient id="SVGID_5_" gradientUnits="userSpaceOnUse" x1="209.8786" y1="262.473" x2="665.2486" y2="262.473" gradientTransform="matrix(1.0039 0 0 -1.0039 0.1922 516.5608)">
	<stop  offset="0" style="stop-color:#E2EDF2"/>
	<stop  offset="0.16" style="stop-color:#DDE8EE"/>
	<stop  offset="0.349" style="stop-color:#CFDAE1"/>
	<stop  offset="0.554" style="stop-color:#B7C3CB"/>
	<stop  offset="0.77" style="stop-color:#95A2AD"/>
	<stop  offset="0.993" style="stop-color:#6A7887"/>
	<stop  offset="1" style="stop-color:#697786"/>
</linearGradient>
<path style="fill:url(#SVGID_5_);" d="M392.113,471.882H117.88c-18.377,0-33.273-14.897-33.273-33.273V34.235h331.767
	c4.976,0,9.011,4.035,9.011,9.011v395.362C425.386,456.985,410.489,471.882,392.113,471.882z"/>
<linearGradient id="SVGID_6_" gradientUnits="userSpaceOnUse" x1="450.001" y1="502.9404" x2="-7.469" y2="433.9844" gradientTransform="matrix(1.0039 0 0 -1.0039 0.1922 516.5608)">
	<stop  offset="0" style="stop-color:#E2EDF2"/>
	<stop  offset="0.16" style="stop-color:#DDE8EE"/>
	<stop  offset="0.349" style="stop-color:#CFDAE1"/>
	<stop  offset="0.554" style="stop-color:#B7C3CB"/>
	<stop  offset="0.77" style="stop-color:#95A2AD"/>
	<stop  offset="0.993" style="stop-color:#6A7887"/>
	<stop  offset="1" style="stop-color:#697786"/>
</linearGradient>
<path style="fill:url(#SVGID_6_);" d="M84.608,109.964h-9.011c-36.847,0-66.717-29.871-66.717-66.717l0,0
	c0-4.976,4.035-9.011,9.011-9.011h66.718L84.608,109.964L84.608,109.964z"/>
<linearGradient id="SVGID_7_" gradientUnits="userSpaceOnUse" x1="229.7199" y1="386.4632" x2="200.6899" y2="578.0331" gradientTransform="matrix(1.0039 0 0 -1.0039 0.1922 516.5608)">
	<stop  offset="0" style="stop-color:#E2EDF2;stop-opacity:0"/>
	<stop  offset="0.352" style="stop-color:#BBC7CF;stop-opacity:0.352"/>
	<stop  offset="1" style="stop-color:#697786"/>
</linearGradient>
<path style="fill:url(#SVGID_7_);" d="M416.374,34.235H84.608H17.891c-3.256,0-6.1,1.733-7.683,4.32l1.022,11.016l414.158,332.396
	V43.247C425.386,38.269,421.352,34.235,416.374,34.235z"/>
<linearGradient id="SVGID_8_" gradientUnits="userSpaceOnUse" x1="484.6209" y1="137.9851" x2="-6.4091" y2="65.175" gradientTransform="matrix(1.0039 0 0 -1.0039 0.1922 516.5608)">
	<stop  offset="0" style="stop-color:#E2EDF2;stop-opacity:0"/>
	<stop  offset="0.352" style="stop-color:#BBC7CF;stop-opacity:0.352"/>
	<stop  offset="1" style="stop-color:#697786"/>
</linearGradient>
<path style="fill:url(#SVGID_8_);" d="M84.608,357.471v81.137c0,18.377,14.897,33.273,33.273,33.273h274.232
	c18.377,0,33.273-14.897,33.273-33.273v-81.137H84.608z"/>
<linearGradient id="SVGID_9_" gradientUnits="userSpaceOnUse" x1="211.9057" y1="240.5801" x2="401.1957" y2="51.2901" gradientTransform="matrix(1.0039 0 0 -1.0039 0.1922 516.5608)">
	<stop  offset="0" style="stop-color:#7ECCFD"/>
	<stop  offset="0.242" style="stop-color:#75C7FC"/>
	<stop  offset="0.643" style="stop-color:#5BB9F9"/>
	<stop  offset="1" style="stop-color:#3FA9F5"/>
</linearGradient>
<path style="fill:url(#SVGID_9_);" d="M203.559,232.933c-54.586,0-86.398-14.871-101.838-25.116v212.155
	c0,16.531,13.4,29.931,29.931,29.931H378.34c16.531,0,29.931-13.4,29.931-29.931V201.839
	C303.253,173.3,282.733,232.933,203.559,232.933z"/>
<linearGradient id="SVGID_10_" gradientUnits="userSpaceOnUse" x1="218.8893" y1="313.7787" x2="6.7892" y2="241.1087" gradientTransform="matrix(1.0039 0 0 -1.0039 0.1922 516.5608)">
	<stop  offset="0" style="stop-color:#7ECCFD"/>
	<stop  offset="0.242" style="stop-color:#75C7FC"/>
	<stop  offset="0.643" style="stop-color:#5BB9F9"/>
	<stop  offset="1" style="stop-color:#3FA9F5"/>
</linearGradient>
<path style="fill:url(#SVGID_10_);" d="M262.165,221.089c-16.867,6.62-35.17,11.841-58.61,11.841
	c-54.581,0-86.393-14.871-101.837-25.118C101.718,207.812,180.421,180.941,262.165,221.089z"/>
<linearGradient id="SVGID_11_" gradientUnits="userSpaceOnUse" x1="258.5508" y1="238.9052" x2="370.4708" y2="126.9952" gradientTransform="matrix(1.0039 0 0 -1.0039 0.1922 516.5608)">
	<stop  offset="0" style="stop-color:#FFFFFF;stop-opacity:0"/>
	<stop  offset="0.483" style="stop-color:#FFFFFF"/>
	<stop  offset="0.927" style="stop-color:#FFFFFF;stop-opacity:0.141"/>
	<stop  offset="1" style="stop-color:#FFFFFF;stop-opacity:0"/>
</linearGradient>
<path style="opacity:0.37;fill:url(#SVGID_11_);enable-background:new    ;" d="M425.386,92.686v289.652l-89.545,89.545H119.864
	c-19.472,0-35.256-15.784-35.256-35.256v-3.176L425.386,92.686z"/>
<g>
	
		<linearGradient id="SVGID_12_" gradientUnits="userSpaceOnUse" x1="120.1386" y1="71.534" x2="191.1086" y2="71.534" gradientTransform="matrix(1.0039 0 0 -1.0039 0.1922 516.5608)">
		<stop  offset="0" style="stop-color:#654E48"/>
		<stop  offset="1" style="stop-color:#503837"/>
	</linearGradient>
	<path style="fill:url(#SVGID_12_);" d="M155.083,444.746L155.083,444.746c0,3.143-2.548,5.691-5.691,5.691h-41.744
		c-3.143,0-5.691-2.548-5.691-5.691l0,0c0-3.143,2.548-5.691,5.691-5.691h41.744C152.535,439.055,155.083,441.603,155.083,444.746z"
		/>
	
		<linearGradient id="SVGID_13_" gradientUnits="userSpaceOnUse" x1="120.1386" y1="106.681" x2="191.1086" y2="106.681" gradientTransform="matrix(1.0039 0 0 -1.0039 0.1922 516.5608)">
		<stop  offset="0" style="stop-color:#654E48"/>
		<stop  offset="1" style="stop-color:#503837"/>
	</linearGradient>
	<path style="fill:url(#SVGID_13_);" d="M134.212,409.461L134.212,409.461c0,3.143-2.548,5.691-5.691,5.691h-20.873
		c-3.143,0-5.691-2.548-5.691-5.691l0,0c0-3.143,2.548-5.691,5.691-5.691h20.873C131.663,403.77,134.212,406.318,134.212,409.461z"
		/>
	
		<linearGradient id="SVGID_14_" gradientUnits="userSpaceOnUse" x1="120.1386" y1="141.828" x2="191.1086" y2="141.828" gradientTransform="matrix(1.0039 0 0 -1.0039 0.1922 516.5608)">
		<stop  offset="0" style="stop-color:#654E48"/>
		<stop  offset="1" style="stop-color:#503837"/>
	</linearGradient>
	<path style="fill:url(#SVGID_14_);" d="M134.211,374.177L134.211,374.177c0,3.143-2.548,5.691-5.691,5.691h-20.872
		c-3.143,0-5.691-2.548-5.691-5.691l0,0c0-3.143,2.548-5.691,5.691-5.691h20.872C131.663,368.485,134.211,371.033,134.211,374.177z"
		/>
	
		<linearGradient id="SVGID_15_" gradientUnits="userSpaceOnUse" x1="120.1386" y1="176.975" x2="191.1086" y2="176.975" gradientTransform="matrix(1.0039 0 0 -1.0039 0.1922 516.5608)">
		<stop  offset="0" style="stop-color:#654E48"/>
		<stop  offset="1" style="stop-color:#503837"/>
	</linearGradient>
	<path style="fill:url(#SVGID_15_);" d="M134.211,338.892L134.211,338.892c0,3.143-2.548,5.691-5.691,5.691h-20.872
		c-3.143,0-5.691-2.548-5.691-5.691l0,0c0-3.143,2.548-5.691,5.691-5.691h20.872C131.663,333.201,134.211,335.749,134.211,338.892z"
		/>
	
		<linearGradient id="SVGID_16_" gradientUnits="userSpaceOnUse" x1="120.1386" y1="212.122" x2="191.1086" y2="212.122" gradientTransform="matrix(1.0039 0 0 -1.0039 0.1922 516.5608)">
		<stop  offset="0" style="stop-color:#654E48"/>
		<stop  offset="1" style="stop-color:#503837"/>
	</linearGradient>
	<path style="fill:url(#SVGID_16_);" d="M134.212,303.607L134.212,303.607c0,3.143-2.548,5.691-5.691,5.691h-20.873
		c-3.143,0-5.691-2.548-5.691-5.691l0,0c0-3.143,2.548-5.691,5.691-5.691h20.873C131.663,297.916,134.212,300.464,134.212,303.607z"
		/>
	
		<linearGradient id="SVGID_17_" gradientUnits="userSpaceOnUse" x1="120.1386" y1="247.268" x2="191.1086" y2="247.268" gradientTransform="matrix(1.0039 0 0 -1.0039 0.1922 516.5608)">
		<stop  offset="0" style="stop-color:#654E48"/>
		<stop  offset="1" style="stop-color:#503837"/>
	</linearGradient>
	<path style="fill:url(#SVGID_17_);" d="M155.083,268.323L155.083,268.323c0,3.143-2.548,5.691-5.691,5.691h-41.744
		c-3.143,0-5.691-2.548-5.691-5.691l0,0c0-3.143,2.548-5.691,5.691-5.691h41.744C152.535,262.631,155.083,265.18,155.083,268.323z"
		/>
	
		<linearGradient id="SVGID_18_" gradientUnits="userSpaceOnUse" x1="120.1386" y1="282.415" x2="191.1086" y2="282.415" gradientTransform="matrix(1.0039 0 0 -1.0039 0.1922 516.5608)">
		<stop  offset="0" style="stop-color:#654E48"/>
		<stop  offset="1" style="stop-color:#503837"/>
	</linearGradient>
	<path style="fill:url(#SVGID_18_);" d="M134.212,233.038L134.212,233.038c0,3.143-2.548,5.691-5.691,5.691h-20.873
		c-3.143,0-5.691-2.548-5.691-5.691l0,0c0-3.143,2.548-5.691,5.691-5.691h20.873C131.663,227.347,134.212,229.895,134.212,233.038z"
		/>
	
		<linearGradient id="SVGID_19_" gradientUnits="userSpaceOnUse" x1="120.1386" y1="317.562" x2="191.1086" y2="317.562" gradientTransform="matrix(1.0039 0 0 -1.0039 0.1922 516.5608)">
		<stop  offset="0" style="stop-color:#654E48"/>
		<stop  offset="1" style="stop-color:#503837"/>
	</linearGradient>
	<path style="fill:url(#SVGID_19_);" d="M134.211,197.753L134.211,197.753c0,3.143-2.548,5.691-5.691,5.691h-20.872
		c-3.143,0-5.691-2.548-5.691-5.691l0,0c0-3.143,2.548-5.691,5.691-5.691h20.872C131.663,192.062,134.211,194.61,134.211,197.753z"
		/>
	
		<linearGradient id="SVGID_20_" gradientUnits="userSpaceOnUse" x1="120.1386" y1="352.709" x2="191.1086" y2="352.709" gradientTransform="matrix(1.0039 0 0 -1.0039 0.1922 516.5608)">
		<stop  offset="0" style="stop-color:#654E48"/>
		<stop  offset="1" style="stop-color:#503837"/>
	</linearGradient>
	<path style="fill:url(#SVGID_20_);" d="M134.211,162.469L134.211,162.469c0,3.143-2.548,5.691-5.691,5.691h-20.872
		c-3.143,0-5.691-2.548-5.691-5.691l0,0c0-3.143,2.548-5.691,5.691-5.691h20.872C131.663,156.777,134.211,159.325,134.211,162.469z"
		/>
	
		<linearGradient id="SVGID_21_" gradientUnits="userSpaceOnUse" x1="120.1386" y1="387.856" x2="191.1086" y2="387.856" gradientTransform="matrix(1.0039 0 0 -1.0039 0.1922 516.5608)">
		<stop  offset="0" style="stop-color:#654E48"/>
		<stop  offset="1" style="stop-color:#503837"/>
	</linearGradient>
	<path style="fill:url(#SVGID_21_);" d="M134.212,127.184L134.212,127.184c0,3.143-2.548,5.691-5.691,5.691h-20.873
		c-3.143,0-5.691-2.548-5.691-5.691l0,0c0-3.143,2.548-5.691,5.691-5.691h20.873C131.663,121.493,134.212,124.041,134.212,127.184z"
		/>
	
		<linearGradient id="SVGID_22_" gradientUnits="userSpaceOnUse" x1="120.1386" y1="423.003" x2="191.1086" y2="423.003" gradientTransform="matrix(1.0039 0 0 -1.0039 0.1922 516.5608)">
		<stop  offset="0" style="stop-color:#654E48"/>
		<stop  offset="1" style="stop-color:#503837"/>
	</linearGradient>
	<path style="fill:url(#SVGID_22_);" d="M155.083,91.899L155.083,91.899c0,3.143-2.548,5.691-5.691,5.691h-41.744
		c-3.143,0-5.691-2.548-5.691-5.691l0,0c0-3.143,2.548-5.691,5.691-5.691h41.744C152.535,86.208,155.083,88.756,155.083,91.899z"/>
</g>
<g>
	<circle style="fill:#7ECCFD;" cx="271.199" cy="405.052" r="14.765"/>
	<circle style="fill:#7ECCFD;" cx="251.723" cy="385.576" r="7.382"/>
	<circle style="fill:#7ECCFD;" cx="347.758" cy="301.638" r="7.382"/>
	<circle style="fill:#7ECCFD;" cx="328.423" cy="253.289" r="7.382"/>
	<circle style="fill:#7ECCFD;" cx="309.077" cy="289.812" r="7.382"/>
</g>
<linearGradient id="SVGID_23_" gradientUnits="userSpaceOnUse" x1="456.1957" y1="496.1671" x2="-1.2743" y2="458.3541" gradientTransform="matrix(1.0039 0 0 -1.0039 0.1922 516.5608)">
	<stop  offset="0" style="stop-color:#E2EDF2"/>
	<stop  offset="0.16" style="stop-color:#DDE8EE"/>
	<stop  offset="0.349" style="stop-color:#CFDAE1"/>
	<stop  offset="0.554" style="stop-color:#B7C3CB"/>
	<stop  offset="0.77" style="stop-color:#95A2AD"/>
	<stop  offset="0.993" style="stop-color:#6A7887"/>
	<stop  offset="1" style="stop-color:#697786"/>
</linearGradient>
<path style="fill:url(#SVGID_23_);" d="M423.741,49.572H11.229C5.028,49.572,0,44.544,0,38.343l0,0
	c0-6.201,5.028-11.229,11.229-11.229h412.512c6.201,0,11.229,5.028,11.229,11.229l0,0C434.97,44.544,429.944,49.572,423.741,49.572z
	"/>
<g>
</g>
<g>
</g>
<g>
</g>
<g>
</g>
<g>
</g>
<g>
</g>
<g>
</g>
<g>
</g>
<g>
</g>
<g>
</g>
<g>
</g>
<g>
</g>
<g>
</g>
<g>
</g>
<g>
</g>
</svg>
