<svg width="30" height="22" viewBox="0 0 30 22" fill="none" xmlns="http://www.w3.org/2000/svg">
<path d="M27.444 0.333332H2.55512C2.08363 0.333332 1.63144 0.520633 1.29804 0.854031C0.964645 1.18743 0.777344 1.63961 0.777344 2.11111V19.8889C0.777344 20.3604 0.964645 20.8126 1.29804 21.146C1.63144 21.4794 2.08363 21.6667 2.55512 21.6667H27.444C27.9155 21.6667 28.3677 21.4794 28.7011 21.146C29.0345 20.8126 29.2218 20.3604 29.2218 19.8889V2.11111C29.2218 1.63961 29.0345 1.18743 28.7011 0.854031C28.3677 0.520633 27.9155 0.333332 27.444 0.333332ZM26.0751 19.8889H4.03068L10.2529 13.4533L8.9729 12.2178L2.55512 18.8578V3.46222L13.604 14.4578C13.9371 14.7889 14.3877 14.9747 14.8573 14.9747C15.327 14.9747 15.7776 14.7889 16.1107 14.4578L27.444 3.18667V18.7422L20.9018 12.2L19.6485 13.4533L26.0751 19.8889ZM3.71957 2.11111H26.004L14.8573 13.1956L3.71957 2.11111Z" fill="white"/>
</svg>
