<svg width="26" height="26" viewBox="0 0 26 26" fill="none" xmlns="http://www.w3.org/2000/svg">
<path d="M5.93852 2.15819C5.84259 2.03479 5.7215 1.93321 5.58329 1.86021C5.44509 1.7872 5.29293 1.74443 5.13693 1.73475C4.98093 1.72507 4.82465 1.74869 4.67848 1.80404C4.53231 1.8594 4.39959 1.94522 4.28914 2.05581L2.60889 3.73769C1.82402 4.52419 1.53477 5.63732 1.87764 6.61394C3.30072 10.6563 5.61562 14.3263 8.65064 17.3519C11.6763 20.3869 15.3463 22.7018 19.3886 24.1249C20.3653 24.4678 21.4784 24.1786 22.2649 23.3937L23.9451 21.7134C24.0557 21.603 24.1416 21.4703 24.1969 21.3241C24.2523 21.1779 24.2759 21.0216 24.2662 20.8656C24.2565 20.7096 24.2138 20.5575 24.1408 20.4193C24.0677 20.2811 23.9662 20.16 23.8428 20.0641L20.0939 17.1488C19.9621 17.0466 19.8087 16.9756 19.6455 16.9412C19.4822 16.9069 19.3132 16.9101 19.1514 16.9506L15.5926 17.8394C15.1176 17.9582 14.62 17.9519 14.1481 17.8212C13.6762 17.6904 13.2462 17.4398 12.9 17.0936L8.90902 13.1009C8.56252 12.7549 8.31155 12.325 8.18055 11.8531C8.04955 11.3812 8.04299 10.8835 8.16152 10.4083L9.05202 6.84957C9.09249 6.68771 9.09568 6.51877 9.06133 6.3555C9.02699 6.19224 8.95602 6.0389 8.85377 5.90706L5.93852 2.15819ZM3.06227 0.830564C3.34663 0.546107 3.68826 0.325401 4.06447 0.183101C4.44067 0.0408016 4.84285 -0.0198358 5.24429 0.00521564C5.64572 0.0302671 6.03724 0.140434 6.39283 0.328402C6.74843 0.516369 7.05997 0.777836 7.30677 1.09544L10.222 4.84269C10.7566 5.53006 10.9451 6.42544 10.7339 7.27044L9.84502 10.8292C9.79906 11.0135 9.80154 11.2066 9.85222 11.3897C9.9029 11.5727 10.0001 11.7396 10.1343 11.8741L14.1269 15.8667C14.2615 16.0012 14.4286 16.0985 14.612 16.1492C14.7954 16.1999 14.9888 16.2022 15.1734 16.1559L18.7305 15.2671C19.1475 15.1628 19.5828 15.1547 20.0033 15.2434C20.4239 15.3321 20.8189 15.5152 21.1583 15.7789L24.9055 18.6942C26.2526 19.7423 26.3761 21.7329 25.1704 22.9371L23.4901 24.6173C22.2876 25.8198 20.4904 26.3479 18.815 25.7581C14.5269 24.2493 10.6336 21.7944 7.42377 18.5756C4.20511 15.3662 1.75025 11.4734 0.241265 7.18594C-0.346985 5.51219 0.18114 3.71331 1.38364 2.51081L3.06389 0.830564H3.06227Z" fill="white"/>
</svg>
