<svg id="Capa_1" enable-background="new 0 0 510 510" height="512" viewBox="0 0 510 510" width="512" xmlns="http://www.w3.org/2000/svg"><g><path d="m239.999 255.929c-59.231 7.385-104.999 57.917-104.999 119.071 7.462-1.555 52.488-10.935 60-12.5l45-26.875 15-43.125z" fill="#d9f2ff"/><path d="m270.001 255.929-11.668 32.246 11.668 47.45 45.005 26.877c7.462 1.555 52.482 10.934 59.994 12.498 0-61.194-45.805-111.689-104.999-119.071z" fill="#cdf"/><path d="m375 135c0-20.194 0-63.236 0-75l-60-10-60 10-10 37.5 10 37.5 60 10z" fill="#cdf"/><path d="m135 135 60 10 60-10c0-20.194 0-63.236 0-75l-60-10-60 10z" fill="#d9f2ff"/><path d="m255 255c66.271 0 120-53.725 120-120-14.518 0-105.387 0-120 0l-10 60z" fill="#fb3"/><path d="m255 255c0-14.518 0-105.387 0-120-14.518 0-105.386 0-120 0 0 33.137 13.432 63.137 35.147 84.852 37.917 37.919 83.579 34.877 84.853 35.148z" fill="#fd9"/><path d="m420 60c0-7.259 0-52.693 0-60-4.655 0-160.348 0-165 0l-10 30 10 30z" fill="#384949"/><path d="m90 60h165c0-7.259 0-52.693 0-60-4.655 0-160.348 0-165 0z" fill="#4a696f"/><path d="m255 255c-5.08 0-10.086-3.467-15-2.854v83.479c-21.454 8.045-83.619 31.357-105 39.375v75l60 10c7.494-1.249 52.481-8.747 60-10l10-70.158z" fill="#fd9"/><path d="m270 335.625v-86.218c-4.914-.613-9.92 5.593-15 5.593v195l60 10 60-10c0-20.194 0-63.236 0-75-21.402-8.025-83.602-31.351-105-39.375z" fill="#fb3"/><path d="m420 510c0-7.259 0-52.693 0-60-4.655 0-160.348 0-165 0l-10 30 10 30z" fill="#384949"/><path d="m90 510h165c0-7.259 0-52.693 0-60-4.655 0-160.348 0-165 0z" fill="#4a696f"/></g></svg>