<svg id="Capa_1" data-name="Capa 1" xmlns="http://www.w3.org/2000/svg" viewBox="0 0 330 330"><path d="M315,120H292.31a135.36,135.36,0,0,0-5.47-13.2l16.05-16a15,15,0,0,0,0-21.21L260.46,27.11a15,15,0,0,0-21.21,0l-16.05,16A135.36,135.36,0,0,0,210,37.69V15A15,15,0,0,0,195,0H135a15,15,0,0,0-15,15V37.69a134.17,134.17,0,0,0-13.19,5.47l-16.06-16a15,15,0,0,0-21.21,0L27.11,69.54a15,15,0,0,0,0,21.21l16,16.06A134.17,134.17,0,0,0,37.69,120H15A15,15,0,0,0,0,135v60a15,15,0,0,0,15,15H37.69a135.36,135.36,0,0,0,5.47,13.2l-16,16.05a15,15,0,0,0,0,21.21l42.43,42.43a15,15,0,0,0,21.21,0l16.06-16.05A134.17,134.17,0,0,0,120,292.31V315a15,15,0,0,0,15,15h60a15,15,0,0,0,15-15V292.31a133,133,0,0,0,13.2-5.48l16.05,16.05a15,15,0,0,0,21.21,0l42.43-42.42a15,15,0,0,0,0-21.22l-16.05-16.05A131.77,131.77,0,0,0,292.31,210H315a15,15,0,0,0,15-15V135A15,15,0,0,0,315,120Zm-15,60H281.22a15,15,0,0,0-14.53,11.26,103.75,103.75,0,0,1-11.23,27.06,15,15,0,0,0,2.31,18.24l13.3,13.29-21.22,21.22-13.29-13.3a15,15,0,0,0-18.24-2.3,104.07,104.07,0,0,1-27.06,11.22A15,15,0,0,0,180,281.22V300H150V281.22a15,15,0,0,0-11.26-14.53,103.75,103.75,0,0,1-27.06-11.23,15,15,0,0,0-18.24,2.31l-13.29,13.3L58.93,249.85l13.3-13.29a15,15,0,0,0,2.31-18.24,104.09,104.09,0,0,1-11.23-27.06A15,15,0,0,0,48.78,180H30V150H48.78a15,15,0,0,0,14.53-11.26,104.27,104.27,0,0,1,11.22-27.06,15,15,0,0,0-2.3-18.24L58.93,80.15,80.15,58.93l13.29,13.3a15,15,0,0,0,18.24,2.31,104.09,104.09,0,0,1,27.06-11.23A15,15,0,0,0,150,48.78V30h30V48.78a15,15,0,0,0,11.26,14.53,104,104,0,0,1,27.06,11.23,15,15,0,0,0,18.24-2.31l13.29-13.3,21.22,21.22-13.3,13.29a15,15,0,0,0-2.3,18.24,104.07,104.07,0,0,1,11.22,27.06A15,15,0,0,0,281.22,150H300Z"/><path d="M186.39,132.39,152,166.79l-9.39-9.4a15,15,0,1,0-21.22,21.22l20,20a15,15,0,0,0,21.22,0l45-45a15,15,0,0,0-21.22-21.22Z"/></svg>