<svg id="Capa_1" data-name="Capa 1" xmlns="http://www.w3.org/2000/svg" viewBox="0 0 512 510"><path d="M443.73,199.23A84.78,84.78,0,0,0,472,136v-5h15a15,15,0,0,0,0-30h-6.19A95.22,95.22,0,0,0,402,22.19V16a15,15,0,0,0-30,0v6.19A95.22,95.22,0,0,0,293.19,101H287a15,15,0,0,0,0,30h15v5a84.77,84.77,0,0,0,29.58,64.36,115.09,115.09,0,0,0-32.43,21A94.38,94.38,0,0,0,271,212.19V206a15,15,0,0,0-30,0v6.19a93.94,93.94,0,0,0-28.14,9.19,115.23,115.23,0,0,0-32.43-21A84.79,84.79,0,0,0,210,136v-5h15a15,15,0,0,0,0-30h-6.19A95.22,95.22,0,0,0,140,22.19V16a15,15,0,0,0-30,0v6.19A95.22,95.22,0,0,0,31.19,101H25a15,15,0,0,0,0,30H40v5a84.78,84.78,0,0,0,28.27,63.23A110.17,110.17,0,0,0,0,301v95a15,15,0,0,0,15,15H168.62A114.73,114.73,0,0,0,131,496a15,15,0,0,0,15,15H366a15,15,0,0,0,15-15,114.73,114.73,0,0,0-37.62-85H497a15,15,0,0,0,15-15V301A110.17,110.17,0,0,0,443.73,199.23ZM323.75,101A65.19,65.19,0,0,1,372,52.76V56a15,15,0,0,0,30,0V52.76A65.19,65.19,0,0,1,450.25,101ZM442,131v5a55,55,0,0,1-110,0v-5ZM256,261a15,15,0,0,0,15-15v-3.24A65.19,65.19,0,0,1,319.25,291H192.75A65.19,65.19,0,0,1,241,242.76V246A15,15,0,0,0,256,261Zm55,65a55,55,0,0,1-110,0v-5H311ZM61.75,101A65.19,65.19,0,0,1,110,52.76V56a15,15,0,0,0,30,0V52.76A65.19,65.19,0,0,1,188.25,101ZM180,131v5a55,55,0,0,1-110,0v-5ZM30,301a80.09,80.09,0,0,1,80-80h25a85,85,0,0,1,53.09,18.64A94.84,94.84,0,0,0,162.19,291H156a15,15,0,0,0,0,30h15v5a84.59,84.59,0,0,0,20.27,55H30ZM349.67,481H162.32A85.15,85.15,0,0,1,246,411h20A85.13,85.13,0,0,1,349.67,481ZM482,381H320.73A84.59,84.59,0,0,0,341,326v-5h15a15,15,0,0,0,0-30h-6.19a94.84,94.84,0,0,0-25.9-51.36A85,85,0,0,1,377,221h25a80.09,80.09,0,0,1,80,80Z" transform="translate(0 -1)"/></svg>