<svg id="Layer_1" data-name="Layer 1" xmlns="http://www.w3.org/2000/svg" viewBox="0 0 512 477.62"><path d="M472.3,265.4V32.25a15.06,15.06,0,0,0-15.06-15.06H53.72A15.06,15.06,0,0,0,38.66,32.25V284A45.69,45.69,0,0,0,18,292.53C-1.8,306.58-6.49,338,10.1,357.4l67.84,82.24c42,49.15,86.6,55.17,152.92,55.17,56.91,0,82.35.25,132-11.05l48.29-11.55a42.16,42.16,0,0,0,34.24,18h23.79c23.64,0,42.87-20.26,42.87-45.16V310.43C512,286.65,494.46,267.12,472.3,265.4Zm-67.7,31-20.06-10.2a119.35,119.35,0,0,0-104.66-1.69c-9.15,3.6-29.09,15.67-39.44,15.26H170.81a41.94,41.94,0,0,0-41.89,41.89v11c-.13-.14-.27-.27-.39-.41l-49.73-54a46,46,0,0,0-10-8.2V140.64H192v55.21a15.07,15.07,0,0,0,15.07,15.06h95a15.06,15.06,0,0,0,15.06-15.06V140.64h125V265.4c-17.6,1.36-32.27,14-37.58,31ZM222.16,140.64h64.91v40.15H222.16Zm220-30.12h-125V47.31h125v63.21ZM287.07,47.31v63.21H222.16V47.31Zm-95,0v63.21H68.78V47.31ZM355.82,454.46C310,465,282.41,464.53,231.4,464.53c-62.25,0-92.33-1-130.22-44.06L33.34,338.23c-11.8-15.37,9.57-33.5,23.3-19.57l49.73,54c13.14,13.87,29.68,21.5,50.07,21.95H294.3a15.06,15.06,0,1,0,0-30.12H159V341.65a11.78,11.78,0,0,1,11.77-11.77h69.63c15.69,1.13,38.33-12,52.14-18.06a89.37,89.37,0,0,1,78.35,1.24l31.54,16V443.3Zm126.06-9.4c0,8.3-5.72,15-12.75,15H445.34c-7,0-12.75-6.74-12.75-15V310.43c0-8.29,5.72-15,12.75-15h23.79c7,0,12.75,6.75,12.75,15Z" transform="translate(0 -17.19)"/></svg>