<svg id="Layer_1" data-name="Layer 1" xmlns="http://www.w3.org/2000/svg" viewBox="0 0 512 511.98"><path d="M512,374a15,15,0,0,0-2.31-8L470.4,279.65C456,248,421.31,227.47,382.1,227.47H346.66V207.29a25,25,0,0,0-17.54-23.86c14.74-26.7,26.26-56.41,26.26-84.05a99.39,99.39,0,0,0-198.77,0c0,27.25,11.2,56.5,25.64,82.91H15a15,15,0,0,0,0,30H48.73v30H36a15,15,0,1,0,0,30H48.73V301H15a15,15,0,0,0,0,30H48.73V449.52a15,15,0,0,0,15,15h42.62a50,50,0,0,0,99.87,0l165.88.5a50,50,0,0,0,99.8,0H497a15,15,0,0,0,15-15V374.34c0-.06,0-.12,0-.18S512,374,512,374ZM450.47,308.3,473.54,359H406.66V318.71c0-5.55,7-10.41,15-10.41ZM256,30a69.47,69.47,0,0,1,69.38,69.38c0,28.52-16.27,61.46-34.15,89.06a14.16,14.16,0,0,0-1,1.52A475,475,0,0,1,256,235.56a471.82,471.82,0,0,1-34.28-45.65,15.54,15.54,0,0,0-.93-1.45c-17.9-27.6-34.18-60.55-34.18-89.08A69.47,69.47,0,0,1,256,30ZM78.73,331h42.56a15,15,0,0,0,0-30H78.73V272.29h91.73a15,15,0,0,0,0-30H78.73v-30H200.61a476.29,476.29,0,0,0,44.5,56.24,15,15,0,0,0,21.77,0,475.12,475.12,0,0,0,44.5-56.24h5.28V434.52H198a49.95,49.95,0,0,0-83.51,0H78.73Zm77.56,151a20,20,0,1,1,20-20A20,20,0,0,1,156.29,482ZM422,482a20,20,0,0,1-19.25-25.38,14.46,14.46,0,0,0,1.07-2.91,20,20,0,0,1,36.36,0,15.07,15.07,0,0,0,1.06,2.91A19.48,19.48,0,0,1,442,462,20,20,0,0,1,422,482Zm42.07-47a49.93,49.93,0,0,0-84.14,0H346.66V257.47H382.1c20.49,0,39.5,8,51.63,20.83H421.67c-24.82,0-45,18.13-45,40.41V374a15,15,0,0,0,15,15H482v46Z" transform="translate(0 0)"/><path d="M256,128.8a30,30,0,1,0-30-30A30,30,0,0,0,256,128.8Z" transform="translate(0 0)"/></svg>