<svg id="Capa_1" data-name="Capa 1" xmlns="http://www.w3.org/2000/svg" viewBox="0 0 512 512"><path d="M256,92.89h-1.08A164.53,164.53,0,0,0,152.13,385a38.76,38.76,0,0,1,14.42,30.13V497a15,15,0,0,0,15,15h.09l148.9-.93a15,15,0,0,0,14.91-15V415.45A39.28,39.28,0,0,1,360,384.92a164.52,164.52,0,0,0-104-292Zm-59.46,389v-44h118.9v43.23ZM341,361.68a69.16,69.16,0,0,0-25.15,46.25H196.16a68.67,68.67,0,0,0-25.07-46.17,134.52,134.52,0,0,1,84-238.86H256a134.53,134.53,0,0,1,85,238.79Z"/><path d="M331.71,202.27l-69-34.5a15,15,0,0,0-13.42,0l-69,34.5A15,15,0,0,0,172,215.68v80.5a15,15,0,0,0,8.29,13.42l69,34.5a15.11,15.11,0,0,0,13.24.09l69-33.35A15,15,0,0,0,340,297.33V215.9a15,15,0,0,0-8.29-13.63ZM256,198,292.12,216,257,234.45l-36.72-18.66Zm-54,42.18,40,20.34-.67,46.11L202,286.91Zm69.35,66.47.67-46.14,38-19.95v47.41Z"/><path d="M46,240.93H15a15,15,0,0,0,0,30H46a15,15,0,0,0,0-30Z"/><path d="M497,240.93H466a15,15,0,0,0,0,30h31a15,15,0,0,0,0-30Z"/><path d="M256,61a15,15,0,0,0,15-15V15a15,15,0,0,0-30,0V46A15,15,0,0,0,256,61Z"/><path d="M96.9,118.05a15,15,0,0,0,21.21-21.22L96.19,74.91A15,15,0,0,0,75,96.13Z"/><path d="M415.1,393.82A15,15,0,1,0,393.89,415L415.81,437A15,15,0,0,0,437,415.74Z"/><path d="M96.9,393.82,75,415.74A15,15,0,1,0,96.19,437L118.11,415A15,15,0,1,0,96.9,393.82Z"/><path d="M415.81,74.91,393.89,96.83A15,15,0,0,0,415.1,118L437,96.13a15,15,0,0,0-21.21-21.22Z"/></svg>